<svg width="58" height="52" viewBox="0 0 58 52" fill="none" xmlns="http://www.w3.org/2000/svg">
<path d="M53.6449 10.6891C50.8752 6.22897 46.9513 2.59839 42.2975 0.18999L41.9305 0H16.0695L15.7025 0.18999C11.0487 2.59839 7.12482 6.22897 4.3551 10.6891C1.50596 15.2773 0 20.5717 0 26C0 31.4283 1.50596 36.7227 4.3551 41.3109C7.12482 45.771 11.0487 49.4016 15.7025 51.81L16.0695 52H41.9304L42.2974 51.81C46.9512 49.4016 50.8751 45.771 53.6448 41.3109C56.494 36.7227 58 31.4283 58 26C58 20.5717 56.494 15.2773 53.6449 10.6891ZM16.9029 3.40281H41.0971C45.0493 5.52855 48.3842 8.66209 50.7587 12.4859C50.8173 12.5802 50.8745 12.6753 50.9318 12.7702C50.1777 12.5482 49.4785 12.3003 48.7619 12.0462C46.2673 11.1618 43.6879 10.2472 38.5972 10.2472C33.5064 10.2472 30.9269 11.1618 28.4325 12.0462C26.1062 12.8709 23.9088 13.6501 19.402 13.6501C14.8955 13.6501 12.6981 12.871 10.372 12.0462C9.63219 11.7838 8.87808 11.5169 8.04716 11.2715C10.3464 7.99764 13.3782 5.29864 16.9029 3.40281ZM50.7587 39.5142C48.3842 43.338 45.0493 46.4715 41.0971 48.5973H16.9029C12.9507 46.4716 9.61577 43.338 7.24128 39.5142C4.72723 35.4657 3.39844 30.7926 3.39844 26C3.39844 21.9072 4.36835 17.902 6.21699 14.2981C7.3114 14.571 8.25435 14.9051 9.23763 15.2538C11.7321 16.1382 14.3114 17.0528 19.402 17.0528C24.4928 17.0528 27.0723 16.1382 29.5667 15.2538C31.893 14.4291 34.0904 13.6499 38.5972 13.6499C43.104 13.6499 45.3014 14.429 47.6276 15.2538C49.1428 15.791 50.7036 16.3439 52.8595 16.6932C54.0059 19.6413 54.6016 22.7936 54.6016 26C54.6016 30.7926 53.2728 35.4657 50.7587 39.5142Z" fill="black"/>
<path d="M34.1929 7.56468C34.0257 7.25593 29.99 0 20.6138 0C15.0416 0 11.3557 2.56266 9.24692 4.70689C7.97466 2.49778 5.59303 1.00655 2.86839 1.00655H0V15.7445H2.86839C5.59303 15.7445 7.97466 14.2533 9.24692 12.0441C11.3558 14.1884 15.0417 16.751 20.6138 16.751C29.99 16.751 34.0257 9.4951 34.1929 9.18624L34.6318 8.37546L34.1929 7.56468ZM6.80945 8.77019C6.62842 10.597 5.20437 12.0634 3.39832 12.3064V4.44476C5.20437 4.68772 6.62831 6.1541 6.80945 7.98096L6.5958 8.37558L6.80945 8.77019ZM21.8214 13.2955C21.4251 13.3298 21.0228 13.3484 20.6138 13.3484C17.562 13.3483 14.8639 12.3901 12.5946 10.5003C11.6638 9.72513 10.993 8.93976 10.5698 8.37558C10.993 7.81139 11.6638 7.02602 12.5946 6.25086C14.8639 4.36105 17.562 3.40293 20.6138 3.40293C21.023 3.40293 21.4251 3.42153 21.8214 3.4559C21.1277 4.98796 20.7659 6.65284 20.7659 8.37569C20.7659 10.0985 21.1277 11.7634 21.8214 13.2955ZM28.6331 10.5003C27.5877 11.3707 26.4504 12.041 25.2304 12.5136C24.5311 11.2544 24.1644 9.84457 24.1644 8.37558C24.1644 6.90658 24.5311 5.49668 25.2304 4.23753C26.4504 4.71006 27.5878 5.38031 28.6331 6.25086C29.5645 7.02647 30.2354 7.8123 30.658 8.37546C30.2348 8.93965 29.564 9.72513 28.6331 10.5003Z" transform="translate(12.8035 23.3003)" fill="black"/>
</svg>
